<?xml version="1.0" encoding="utf-8"?>
<!-- Generator: Adobe Illustrator 16.0.0, SVG Export Plug-In . SVG Version: 6.00 Build 0)  -->
<!DOCTYPE svg PUBLIC "-//W3C//DTD SVG 1.1//EN" "http://www.w3.org/Graphics/SVG/1.1/DTD/svg11.dtd">
<svg version="1.1" id="Objects" xmlns="http://www.w3.org/2000/svg" xmlns:xlink="http://www.w3.org/1999/xlink" x="0px" y="0px"
	 width="208.667px" height="208.667px" viewBox="0 0 208.667 208.667" enable-background="new 0 0 208.667 208.667"
	 xml:space="preserve">
<g>
	<g>
		<path fill="#50B4DE" d="M196.667,104.333c0-50.913-41.42-92.333-92.333-92.333C53.42,12,12,53.421,12,104.333
			s41.42,92.333,92.333,92.333C155.246,196.667,196.667,155.246,196.667,104.333z"/>
		<path fill="#FFFFFF" d="M104.333,0L104.333,0C46.711,0,0,46.712,0,104.333l0,0c0,57.622,46.711,104.333,104.333,104.333h0
			c57.622,0,104.333-46.712,104.333-104.333l0,0C208.667,46.712,161.955,0,104.333,0z M12,104.333C12,53.421,53.42,12,104.333,12
			c50.913,0,92.333,41.421,92.333,92.333s-41.42,92.333-92.333,92.333C53.42,196.667,12,155.246,12,104.333z"/>
	</g>
	<g>
		<defs>
			<path id="SVGID_1_" d="M104.333,0L104.333,0c57.622,0,104.333,46.712,104.333,104.333l0,0
				c0,57.622-46.711,104.333-104.333,104.333h0C46.711,208.667,0,161.955,0,104.333l0,0C0,46.712,46.711,0,104.333,0z"/>
		</defs>
		<clipPath id="SVGID_2_">
			<use xlink:href="#SVGID_1_"  overflow="visible"/>
		</clipPath>
		<g clip-path="url(#SVGID_2_)">
			<g>
				
					<rect x="96.309" y="182.206" transform="matrix(0.5662 -0.8243 0.8243 0.5662 -108.1284 158.9626)" fill="none" width="1.29" height="0"/>
				<polygon fill="none" points="83.331,163.384 81.028,161.082 83.331,163.384 				"/>
				
					<rect x="111.598" y="182.538" transform="matrix(-0.5658 -0.8245 0.8245 -0.5658 24.6181 378.0391)" fill="none" width="0.483" height="0"/>
				<polygon fill="none" points="128.529,182.737 133.203,168.415 128.529,182.737 				"/>
				<polygon fill="none" points="125.243,163.375 127.537,161.082 125.243,163.375 				"/>
				<polygon fill="none" points="80.036,182.737 80.036,182.737 75.361,168.415 				"/>
				<polygon fill="#E3E3E3" points="128.529,182.737 123.196,199.079 111.977,182.737 111.976,182.737 114.743,186.768 
					107.945,196.082 110.445,208.248 120.203,208.248 128.529,182.737 				"/>
				<path fill="#E3E3E3" d="M93.924,186.619l2.665-3.882l0,0l-11.219,16.342l-5.333-16.342l0,0l8.325,25.511h8.333l3.5-12.167
					C98.104,192.928,96.014,189.773,93.924,186.619z"/>
				<path fill="#DB4F5D" d="M104.111,195.165c-1.841-0.009-3.23,0.573-3.917,0.917l-3.5,12.167h13.75l-2.5-12.167
					C107.262,195.739,105.907,195.174,104.111,195.165z"/>
				<path fill="#EDC0AA" d="M83.331,163.384L83.331,163.384L83.331,163.384l15.739,15.739h10.425l15.748-15.748l0,0l-0.009,0.009
					l-0.301-2.299l-2.405-17.754l-0.011,0.001l1.319,9.658c-2.608,3.409-14.975,10.341-20.267,10.394
					c-5.104,0.051-18.267-8.881-19.194-9.514l-0.792,7.211l0,0L83.331,163.384z"/>
				<polygon fill="#EDC0AA" points="111.703,182.339 109.495,179.123 111.703,182.339 				"/>
				<polygon fill="#EDC0AA" points="99.07,179.123 97.319,181.674 97.319,181.674 				"/>
				<polygon fill="#EDC0AA" points="96.358,145.493 85.195,146.415 84.576,152.053 85.278,147.165 				"/>
				<path fill="#E0A489" d="M123.836,152.99l-1.319-9.658l-0.239-1.751l-25.92,3.912l-11.08,1.672l-0.703,4.888l-0.256,1.778
					c0,0,0.022,0.015,0.056,0.039c0.927,0.633,14.09,9.565,19.194,9.514C108.861,163.332,121.228,156.399,123.836,152.99z"/>
				<path fill="#282828" d="M75.861,198.415l-15-6.5l7.171-21.513l-37.337,10.846c0,0-7.875,7.875-18.5,27h55.5l-2.833-6.667
					L75.861,198.415z"/>
				<polygon fill="#3B3B3D" points="75.361,168.415 81.028,161.082 68.695,168.415 68.032,170.402 60.861,191.915 75.861,198.415 
					64.861,201.582 67.695,208.248 84.32,208.248 88.361,208.248 80.036,182.737 				"/>
				<polygon fill="#EFEFF0" points="80.036,182.737 85.369,199.079 96.588,182.737 97.319,181.674 99.07,179.123 83.331,163.384 
					81.028,161.082 75.361,168.415 				"/>
				<polygon fill="#CED0D1" points="83.331,163.384 83.584,161.082 83.584,161.082 81.028,161.082 83.331,163.384 				"/>
				<path fill="#282828" d="M177.87,181.248l-37.337-10.846l7.171,21.513l-15,6.5l11,3.167l-2.833,6.667h55.5
					C185.745,189.123,177.87,181.248,177.87,181.248z"/>
				<polygon fill="#3B3B3D" points="132.703,198.415 147.703,191.915 140.532,170.402 139.87,168.415 127.537,161.082 
					133.203,168.415 128.529,182.737 120.203,208.248 124.245,208.248 140.87,208.248 143.703,201.582 				"/>
				<polygon fill="#EFEFF0" points="109.495,179.123 111.703,182.339 111.977,182.737 123.196,199.079 128.529,182.737 
					133.203,168.415 127.537,161.082 125.243,163.375 				"/>
				<polygon fill="#CED0D1" points="125.243,163.375 127.537,161.082 124.933,161.082 124.933,161.085 125.234,163.384 				"/>
				<path fill="#D1515E" d="M109.495,179.123H99.07l-1.751,2.551l-0.73,1.063l-2.665,3.882c2.09,3.154,4.181,6.309,6.271,9.462
					c0.686-0.344,2.075-0.925,3.917-0.917c1.795,0.009,3.15,0.574,3.833,0.917l6.798-9.314l-2.767-4.03l-0.273-0.398
					L109.495,179.123z"/>
			</g>
			<path fill="#F2C4AE" d="M137.32,96.748c0,0,2.375-46.667-35.458-46.5c-37.833-0.167-35.458,46.5-35.458,46.5
				c-4.375-0.25-9.25-0.375-8.25,11.5s12.042,13,12.042,13c0.667,12,8.333,23.667,14,28.667c5.667,5,17.667,5,17.667,5
				s12,0,17.667-5s13.333-16.667,14-28.667c0,0,11.042-1.125,12.042-13S141.695,96.498,137.32,96.748z"/>
			<path fill="#864242" d="M61.814,65.997c5.659-19.333,40.757-33.147,62.427-17.672c0.672-3.053,2.446-4.12,6.446-5.078
				c-2.079,2.299-3.167,3.417-2.75,5.292c1.74-2.159,4.177-1.744,6.917-1.458c-2.975,0.608-4.708,2.208-5.409,4.124
				c5.102,0.789,17.826,9.626,15.522,23.371c-3.87,23.08-4.5,22.175-4.5,22.175s-3.5,2.75-5,10.25c0,0-1.75-21.25-2.5-24.5
				s-7.25-13-7.25-13s-21.363,16.83-38.613,14.33c0,0,5.833-3.917,2.542-9.708c-2.188,3.063-4.94,9.292-12.542,8.958
				c2.708-2,2.958-4.333,2-7.417c-1.625,3.25-8.299,7.366-8.887,6.836l-1.5,22c0,0-1.806-7.971-6.902-7.448
				C61.814,97.052,59.238,74.796,61.814,65.997z"/>
			<path fill="#323232" d="M108.295,96.601c-2.03,0.669-4.424,1.62-6.461,1.62c-2.038,0-4.432-0.951-6.461-1.62
				c-5.086-1.677-17.367-2.802-26.084-0.707c-1.111,0.267-1.874,1.287-1.812,2.428l0.062,1.135c0.046,0.851,0.563,1.58,1.31,1.989
				c0.356,0.194,0.702,0.554,0.898,1.209c0.524,1.747,1.741,8.946,3.966,11.758c2.763,3.493,8.712,3.627,12.735,3.454
				c5.417-0.233,8.964-2.639,10.478-6.713c1.513-4.075,2.367-7.567,3.336-8.673c0.523-0.597,1.113-0.639,1.573-0.64
				c0.46,0.001,1.049,0.043,1.572,0.64c0.969,1.106,1.823,4.598,3.337,8.673c1.513,4.074,5.061,6.48,10.478,6.713
				c4.023,0.173,9.973,0.039,12.736-3.454c2.225-2.813,3.441-10.012,3.965-11.758c0.196-0.655,0.542-1.015,0.898-1.209
				c0.748-0.409,1.264-1.138,1.31-1.989l0.062-1.135c0.062-1.141-0.701-2.161-1.812-2.428
				C125.662,93.799,113.382,94.923,108.295,96.601z M94.5,111.153c-1.455,2.735-3.9,4.133-7.567,4.599
				c-3.667,0.465-8.052-0.252-10.264-1.572c-1.945-1.16-2.891-4.831-3.357-7.043c-0.465-2.212-1.281-6.985,0.99-8.557
				c2.27-1.571,7.978-1.687,11.758-1.455c2.852,0.175,9.022,0.931,10.187,3.143C97.41,102.48,95.677,108.939,94.5,111.153z
				 M130.356,107.137c-0.465,2.212-1.411,5.883-3.356,7.043c-2.212,1.32-6.597,2.038-10.265,1.572
				c-3.667-0.466-6.112-1.863-7.567-4.599c-1.178-2.214-2.911-8.673-1.747-10.886c1.165-2.212,7.334-2.968,10.187-3.143
				c3.78-0.231,9.488-0.116,11.758,1.455C131.637,100.151,130.822,104.925,130.356,107.137z"/>
		</g>
	</g>
</g>
</svg>
