<?xml version="1.0" encoding="utf-8"?>
<!-- Generator: Adobe Illustrator 17.0.0, SVG Export Plug-In . SVG Version: 6.00 Build 0)  -->
<!DOCTYPE svg PUBLIC "-//W3C//DTD SVG 1.1//EN" "http://www.w3.org/Graphics/SVG/1.1/DTD/svg11.dtd">
<svg version="1.1" id="Layer_1" xmlns="http://www.w3.org/2000/svg" xmlns:xlink="http://www.w3.org/1999/xlink" x="0px" y="0px"
	 width="2834.65px" height="1713.636px" viewBox="0 0 2834.65 1713.636" enable-background="new 0 0 2834.65 1713.636"
	 xml:space="preserve">
<g>
	<path fill-rule="evenodd" clip-rule="evenodd" fill="#F0BB0D" d="M1431.067,220.647c29.835-12.331,60.456-22.495,90.918-33.111
		c42.838-14.93,86.105-28.514,129.766-40.765c48.291-13.549,96.806-26.212,145.915-36.639c31.24-6.632,62.535-12.981,93.936-18.699
		c24.866-4.526,49.91-8.261,75.105-10.835c19.266-1.968,38.406-5.249,57.691-6.894c18.119-1.546,36.309-2.661,54.431-4.097
		c42.542-3.372,85.104-2.15,127.639-1.819c19.931,0.154,39.917,2.329,59.854,4.234c27.882,2.666,55.522,6.719,82.952,12.015
		c41.4,7.996,81.659,19.997,120.369,36.936c30.683,13.426,59.756,29.604,86.1,50.382c19.392,15.294,36.671,32.693,51.97,52.169
		c18.292,23.288,31.398,49.303,41.26,76.957c5.661,15.879,8.413,32.571,10.957,49.286c2.833,18.64,1.729,37.31,1.992,55.976
		c0.249,17.613-2.755,34.868-5.39,52.233c-4.174,27.507-12.381,53.811-21.651,79.847c-13.903,39.052-32.227,76.018-52.835,111.964
		c-17.104,29.832-35.907,58.531-55.901,86.437c-15.567,21.727-31.948,42.872-48.988,63.5
		c-19.562,23.683-39.685,46.833-60.719,69.237c-17.87,19.035-35.497,38.301-54.291,56.424
		c-18.912,18.237-37.887,36.442-57.511,53.901c-23.522,20.927-47.434,41.419-71.764,61.433
		c-30.957,25.464-62.395,50.29-94.629,74.093c-22.196,16.391-44.635,32.47-67.287,48.229c-31.91,22.201-64.409,43.538-97.252,64.341
		c-34.564,21.893-69.641,42.934-105.137,63.281c-45.709,26.203-92.081,51.151-139.06,75.019
		c-35.87,18.224-72.133,35.584-108.631,52.494c-43.063,19.952-86.653,38.656-130.668,56.383
		c-33.762,13.598-67.721,26.671-101.958,39.045c-33.268,12.025-66.81,23.229-100.475,34.043
		c-38.669,12.423-77.633,23.854-116.956,34.094c-25.811,6.722-51.56,13.696-77.611,19.41
		c-34.605,7.591-69.225,15.115-104.157,21.146c-26.103,4.506-52.18,9.138-78.48,12.341c-15.405,1.878-30.833,3.57-46.267,5.2
		c-19.672,2.078-39.348,4.127-59.046,5.94c-6.916,0.639-13.893,0.742-20.828,1.119c-40.511,2.211-81.096,1.98-121.622,1.069
		c-23.616-0.53-47.243-2.757-70.808-5.456c-38.167-4.369-75.995-10.345-113.074-20.393c-29.422-7.975-58.225-17.776-86.086-30.368
		c-29.449-13.311-56.941-29.709-82.276-49.707c-16.943-13.373-32.214-28.493-45.63-45.433c-3.28-4.142-6.397-8.416-9.483-12.706
		c-1.878-2.609-4.517-2.503-7.211-2.373c-18.247,0.885-35.937-1.993-53.102-8.086c-20.75-7.365-38.794-18.867-54.707-34.246
		c-21.85-21.115-36.046-46.245-42.692-75.756c-7.349-32.637-4.384-64.266,8.632-95.17c9.292-22.064,23.573-40.325,41.325-55.856
		c19.616-17.161,42.758-27.681,68.232-32.988c5.559-1.158,11.23-1.978,16.89-2.37c2.842-0.196,3.204-1.8,3.917-3.721
		c9.099-24.539,19.719-48.406,31.67-71.686c19.364-37.715,41.603-73.65,65.811-108.459c18.206-26.18,37.71-51.338,57.711-76.11
		c13.361-16.547,27.607-32.379,41.792-48.252c25.63-28.678,52.317-56.329,79.859-83.143c17.062-16.609,34.502-32.854,52.253-48.723
		c20.285-18.134,40.766-36.083,61.787-53.352c20.527-16.864,41.229-33.53,62.155-49.924c32.67-25.593,66.209-49.987,99.996-74.031
		c29.827-21.227,60.348-41.479,91.179-61.238c39.794-25.503,79.942-50.426,121.105-73.681c1.041-0.588,1.842-1.6,2.757-2.412
		c8.537-3.295,17.314-1.648,25.984-1.02c3.221,0.233,3.277,3.293,2.808,5.817c-1.645,8.854-2.922,17.79-5.574,26.424
		c-0.918,2.025-2.84,2.857-4.629,3.88c-35.797,20.445-70.947,41.983-105.692,64.139c-33.182,21.16-66.127,42.74-98.096,65.712
		c-41.162,29.58-82.488,58.979-121.757,91.073c-29.19,23.857-58.051,48.118-86.408,72.985
		c-37.832,33.176-74.017,68.075-108.803,104.359c-32.934,34.352-63.989,70.411-93.302,107.969
		c-26.547,34.013-50.999,69.412-73.032,106.486c-19.617,33.008-36.722,67.265-50.509,103.134c-2.168,5.64-1.865,6.192,4.332,8.215
		c24.879,8.123,47.463,20.367,65.678,39.303c28.592,29.72,44.126,65.032,44.256,106.838c0.093,30.287-6.842,58.512-23.329,83.924
		c-16.604,25.592-38.376,45.63-66.65,57.987c-5.785,2.528-5.86,2.688-2.007,7.622c15.213,19.479,33.533,35.636,53.221,50.431
		c24.921,18.727,52.337,33.046,81.157,44.303c44.102,17.228,89.794,29.046,136.803,35.179c22.839,2.978,45.796,4.902,68.806,6.44
		c29.828,1.996,59.678,3.032,89.504,2.014c25.88-0.884,51.756-2.551,77.62-4.295c45.061-3.04,89.739-8.79,134.168-16.533
		c63.568-11.076,126.605-24.508,188.993-41.241c51.782-13.887,103.015-29.488,153.782-46.52
		c46.871-15.728,93.262-32.886,139.159-51.396c27.909-11.255,55.488-23.239,83.228-34.873
		c37.631-15.786,74.584-33.075,111.203-50.999c49.59-24.271,98.597-49.701,146.829-76.641
		c45.538-25.436,90.465-51.873,134.583-79.657c27.895-17.566,55.81-35.173,82.743-54.2c32.312-22.825,65-45.146,96.274-69.402
		c40.053-31.063,79.742-62.563,117.999-95.854c22.843-19.878,44.812-40.697,67.25-61.005c5.43-3.735,9.945-8.399,13.84-13.696
		c6.4-7.575,13.749-14.224,20.71-21.245c50.874-51.314,97.487-106.199,139.662-164.903c25.664-35.72,48.701-72.945,68.961-111.999
		c22.422-43.229,39.655-88.274,50.49-135.755c3.584-15.716,4.827-31.73,6.274-47.74c0.932-10.286,1.409-20.558,1.087-30.849
		c-0.971-30.86-5.281-61.088-17.092-89.931c-18.704-45.677-48.645-82.314-88.32-111.395
		c-42.202-30.933-89.614-50.772-139.691-64.008c-38.63-10.21-78.046-17.157-118.01-20.487c-22.162-1.846-44.309-3.182-66.549-3.861
		c-13.166-0.402-26.392-1.55-39.495-0.718c-23.003,1.459-46.043,1.57-69.052,3.143c-51.646,3.527-102.801,10.69-153.936,18.309
		c-43.465,6.476-86.146,16.684-129.03,26.015c-51.409,11.186-101.686,26.485-152.242,40.77
		c-20.025,5.657-39.635,12.705-59.477,19.042c-34.09-1.611-68.191-0.336-102.28-0.857
		C1435.012,222.724,1432.676,222.672,1431.067,220.647z"/>
	<path fill-rule="evenodd" clip-rule="evenodd" fill="#012B99" d="M1431.067,220.647c22.62,0.069,45.242,0.228,67.863,0.174
		c14.189-0.035,28.366,0.136,42.522,1.15c26.413,0.209,49.731,8.835,69.091,26.792c26.433,24.517,38.063,56.362,42.464,91.126
		c7.233,57.13-2.567,111.723-27.086,163.575c-15.249,32.244-37.1,58.995-69.912,74.912c-21.14,10.255-43.762,15.679-67.172,17.844
		c-39.681,3.671-79.461,2.114-119.208,2.434c-9.388,0.076-9.531,0.071-10.972,9.318c-10.885,69.852-22.269,139.625-33.299,209.454
		c-1.98,12.534-2.028,12.534-14.732,12.537c-24.942,0.003-49.885,0.036-74.827-0.018c-9.954-0.02-11.11-1.437-9.495-11.391
		c12.387-76.29,24.402-152.64,36.649-228.953c14.141-88.116,27.915-176.291,42.269-264.374c0.199-1.22,0.261-2.471,0.53-3.67
		c1.054-4.705-1-6.534-5.553-6.157c-26.152,0.465-52.297,0.142-78.441,0.196c-3.243,0.006-6.631,0.558-9.592-1.463
		c-2.466-0.095-4.933-0.271-7.399-0.271c-94.608-0.013-189.216-0.012-283.823-0.012c-2.446,0-4.892,0-7.873,0
		c5.614-25.228,11.076-49.892,16.607-74.541c1.348-6.011,1.082-14.079,4.881-17.386c4.139-3.603,12.193-1.031,18.532-1.033
		c156.649-0.045,313.299-0.035,469.948-0.044C1425.717,220.846,1428.392,220.716,1431.067,220.647z"/>
	<path fill-rule="evenodd" clip-rule="evenodd" fill="#012B99" d="M1026.126,454.326c2.003-9.609,3.883-19.246,6.084-28.81
		c0.671-2.915-0.146-3.625-2.847-3.563c-8.184,0.185-16.37,0.256-24.554,0.372c-13.164-0.122-26.328-0.313-39.493-0.348
		c-22.03-0.058-44.063-0.178-66.088,0.107c-5.04,0.065-5.684-1.308-4.729-5.886c5.041-24.158,9.924-48.351,14.498-72.601
		c0.804-4.263,2.466-5.153,6.416-5.138c34.794,0.136,69.59,0.079,104.385,0.079c45.09,0,90.18,0.005,135.269-0.012
		c2.877-0.001,5.754-0.168,8.632-0.255c4.727-1.532,9.569-1.975,14.533-1.95c23.375,0.116,46.751-0.044,70.12,0.073
		c9.881,0.471,19.776-0.075,29.665,0.169c8.089,0.2,9.391,1.745,7.837,9.84c-4.427,23.079-9.272,46.074-13.715,69.15
		c-1.35,7.011-3.645,8.684-11.866,8.706c-32.775,0.086-65.551,0.027-98.326,0.037c-7.421,0.001-14.843-0.066-22.263,0.023
		c-6.964,0.082-7.549,0.614-9.052,8.146c-10.922,54.784-21.886,109.561-32.852,164.336
		c-15.132,75.596-30.221,151.199-45.359,226.792c-0.405,2.023-0.908,4.028-1.234,6.059c-0.696,4.337-3.073,6.478-7.541,6.489
		c-29.477,0.064-58.954,0.189-88.429-0.101c-5.514-0.055-6.578-1.565-5.743-6.966c1.134-7.333,2.812-14.571,4.253-21.85
		c15.498-78.242,31.375-156.41,47.043-234.619c7.289-36.38,14.573-72.762,21.933-109.128
		C1023.358,460.237,1023.933,456.984,1026.126,454.326z"/>
	<path fill-rule="evenodd" clip-rule="evenodd" fill="#EDCF25" d="M1249.474,338.262c-28.589,0.004-57.179,0.006-85.772,0.01
		c15.895-8.565,32.044-16.625,48.464-24.139c29.814-0.455,59.627-0.515,89.439,0.031c-0.524,2.069-2.298,2.873-3.957,3.595
		C1281.645,324.721,1266.046,332.637,1249.474,338.262z"/>
	<path fill-rule="evenodd" clip-rule="evenodd" fill="#EFD95B" d="M2272.536,933.4c3.934-4.744,7.95-9.4,13.263-12.704
		C2282.196,925.784,2278.205,930.466,2272.536,933.4z"/>
	<path fill-rule="evenodd" clip-rule="evenodd" fill="#FEFEFE" d="M1456.674,320.963c18.742,0.082,37.442,0.203,56.164,2.021
		c27.592,2.679,41.098,21.883,44.158,44.117c4.253,30.904-1.891,59.798-19.209,86.032c-16.383,24.817-40.532,35.5-69.177,38.661
		c-29.566,3.265-59.207,3.318-88.875,3.523c-5.132,0.035-4.566-2.352-4.034-5.663c8.055-50.21,16.083-100.425,24.109-150.64
		c0.682-4.269,1.543-8.529,1.887-12.828c0.326-4.064,1.936-5.396,6.146-5.327C1424.116,321.124,1440.396,320.968,1456.674,320.963z"
		/>
	<path fill-rule="evenodd" clip-rule="evenodd" fill="#012B99" d="M1779.659,229.949c3.366,21.814,6.76,43.689,10.115,65.57
		c8.492,55.378,16.972,110.759,25.451,166.141c10.567,69.021,21.096,138.048,31.704,207.063
		c8.263,53.747,16.56,107.488,25.067,161.195c0.637,4.018-0.461,4.381-3.814,4.374c-34.425-0.082-68.851-0.153-103.273,0.079
		c-4.337,0.029-5.075-1.881-5.537-5.253c-3.799-27.758-7.664-55.507-11.516-83.258c-1.867-13.466-3.967-26.905-5.5-40.41
		c-0.52-4.588-2.286-5.487-6.579-5.479c-68.438,0.14-136.875,0.099-205.313,0.099c-2.236,0-4.471,0-7.655,0
		c4.712-8.679,9.002-16.58,13.295-24.48c13.064-24.041,26.239-48.022,39.086-72.179c2.172-4.083,4.66-5.254,9.112-5.239
		c45.349,0.167,90.699,0.046,136.05,0.19c4.556,0.015,6.229-0.506,5.475-5.845c-7.039-49.977-13.757-99.999-20.574-150.008
		c-2.643-19.39-5.285-38.779-7.975-58.163c-0.378-2.729-0.143-5.159,1.241-7.691c26.313-48.216,52.545-96.475,78.797-144.723
		C1777.772,231.091,1777.846,229.865,1779.659,229.949z"/>
	<path fill-rule="evenodd" clip-rule="evenodd" fill="#012B99" d="M1520.059,1302.963c-10.953,3.576-20.277,1.289-29.41-0.601
		c-16.407-3.395-32.814-6.953-48.951-11.424c-10.843-3.005-21.815-5.368-32.763-7.742c-13.617-2.955-27.435-5.2-41.271-6.893
		c-24.556-3.006-49.237-4.599-73.966-2.391c-19.65,1.755-39.303,4.042-58.47,8.733c-16.442,4.025-32.79,8.485-48.876,14.006
		c-12.569,4.312-25.225,8.442-37.594,13.265c-12.219,4.765-24.454,9.509-36.523,14.711c-18.709,8.064-37.996,14.777-56.933,22.325
		c-16.108,6.422-32.522,11.975-49.01,17.258c-11.786,3.776-23.856,6.737-35.913,9.581c-26.33,6.206-53.208,9.489-80.118,9.189
		c-27.238-0.303-54.312-3.849-80.982-10.566c-21.873-5.511-43.355-12.1-64.408-19.952c-21.693-8.092-42.967-17.323-64.341-26.268
		c-24.174-10.117-48.277-20.449-72.941-29.438c-20.5-7.472-41.108-14.547-62.234-19.836c-12.453-3.116-25.234-5.196-37.843-7.698
		c-32.836-6.519-65.95-5.294-99.014-6.18c-2.922-0.079-5.732-0.466-8.461-1.414c-1.842-0.641-4.464-0.395-4.832-3.078
		c-0.359-2.624,1.66-4.195,3.485-5.439c6.307-4.3,13.401-7.061,20.53-9.575c37.927-13.377,77.142-15.555,116.717-11.922
		c23.475,2.154,46.536,7.216,69.301,13.657c17.938,5.075,35.656,10.769,53.27,16.811c13.093,4.491,25.998,9.529,39.062,14.108
		c13.25,4.645,26.578,9.068,39.898,13.51c11.18,3.729,22.298,7.691,33.622,10.927c12.747,3.639,25.585,7.121,38.576,9.715
		c29.294,5.85,58.892,9.49,88.836,8.369c22.818-0.855,45.557-3.253,67.823-8.375c26.408-6.073,52.324-13.876,77.872-23.081
		c27.824-10.022,55.38-20.759,83.217-30.718c20.732-7.418,41.655-14.295,62.971-20.03c25.071-6.746,50.44-10.912,76.274-13.262
		c9.215-0.839,18.479-2.391,27.569-1.382c20.36,2.26,40.821,3.439,61,7.806c22.888,4.951,45.05,11.971,66.8,20.309
		c14.151,5.426,27.865,12.04,41.588,18.512c14.681,6.926,28.778,14.935,42.432,23.756
		C1510.726,1295.268,1513.792,1300.081,1520.059,1302.963z"/>
	<path fill-rule="evenodd" clip-rule="evenodd" fill="#0C9DE5" d="M768.387,1225.094c10.483,1.732,20.905,3.82,31.386,5.583
		c18.612,3.133,37.238,5.313,56.081,5.614c15.606,0.248,31.216,0.188,46.778-1.264c1.8-0.167,3.561-0.763,5.34-1.158
		c11.411-0.411,22.628-2.275,33.765-4.632c9.132-1.93,18.197-4.18,27.358-5.981c1.246-0.246,2.185-1.096,3.215-1.76
		c18.612-4.917,36.777-11.272,54.942-17.561c12.938-4.479,25.562-9.879,38.275-14.992c19.922-8.012,39.712-16.363,59.728-24.131
		c16.021-6.216,32.246-11.919,48.48-17.562c6.949-2.416,14.152-4.103,21.24-6.12c8.259-1.988,16.735-3.116,24.716-6.216
		c21.322-4.429,42.92-7.345,64.613-8.073c23.36-0.783,46.556,1.94,69.674,6.109c21.404,3.859,42.305,9.46,62.755,16.362
		c25.143,8.488,49.961,18.029,74.208,28.992c16.561,7.486,33.563,13.99,50.369,20.934c6.498,4.365,14.261,5.663,21.29,8.764
		c9.948,4.39,20.449,7.381,30.497,11.531c2.501,1.033,5.192,0.894,7.626,1.94c13.171,4.481,26.556,8.161,40.014,11.715
		c11.304,2.983,22.729,5.823,34.153,7.456c18.256,2.609,36.604,5.235,55.182,5.341c16.25,0.091,32.55-0.461,48.73,1.719
		c3.803,0.512,9.494-0.036,10.45,3.534c1.214,4.536-4.558,6.429-7.902,8.128c-10.816,5.491-22.24,9.479-34,12.674
		c-20.813,5.655-42.197,7.232-63.471,8.042c-19.151,0.729-38.344-1.344-57.399-4.858c-14.939-2.754-29.688-6.175-44.314-10.019
		c-17.974-4.724-35.716-10.321-53.159-16.869c-16.067-6.032-32.617-10.797-48.603-17.023c-16.763-6.529-33.99-11.636-50.903-17.689
		c-11.699-4.188-23.927-7.008-36.055-9.862c-18.144-4.27-36.438-7.758-54.99-9.954c-21.944-2.599-43.976-3.394-65.92-1.733
		c-26.162,1.978-52.007,6.33-77.404,13.43c-15.767,4.41-31.531,8.836-47.023,14.055c-17.621,5.936-34.921,12.826-52.339,19.361
		c-21.45,8.049-42.93,15.994-64.636,23.353c-19.766,6.7-39.782,12.523-60.101,17.055c-20.628,4.6-41.653,6.659-62.802,8.124
		c-15.695,1.085-31.11-0.553-46.5-1.928c-20.188-1.802-40.023-6.34-59.491-12.298c-17.399-5.326-34.316-11.947-51.341-18.293
		c-11.407-5.847-23.342-10.589-34.695-16.554c-8.46-4.447-16.804-9.087-25.114-13.813c-7.826-4.452-15.146-9.409-21.716-15.523
		l0.008,0.006c-1.616-1.84-0.058-2.65,1.157-3.571c10.167-1.733,19.868,1.356,29.625,3.182c9.181,1.718,18.183,4.379,27.265,6.626
		c5.041,3.373,11.188,3.211,16.74,4.573C752.147,1221.817,760.14,1224.186,768.387,1225.094z"/>
	<path fill-rule="evenodd" clip-rule="evenodd" fill="#89CFF1" d="M669.372,1209.044c4.694,1.075,8.055,4.857,11.504,7.426
		c18.234,13.588,39.021,22.17,59.043,32.283c3.738,1.887,8.161,2.638,10.977,6.181c-15.502-5.34-30.074-12.727-44.436-20.51
		c-9.517-5.158-19.181-10.093-28.047-16.382C674.888,1215.542,671.687,1212.746,669.372,1209.044z"/>
	<path fill-rule="evenodd" clip-rule="evenodd" fill="#57BBEC" d="M972.31,1221.496c-0.816,2.435-2.972,2.369-4.971,2.816
		c-11.951,2.677-23.9,5.302-35.936,7.612c-7.927,1.521-15.582,1.812-23.432,1.944c9.039-1.456,18.126-2.67,27.106-4.427
		C947.529,1227.008,959.902,1224.165,972.31,1221.496z"/>
	<path fill-rule="evenodd" clip-rule="evenodd" fill="#67C1EE" d="M1600.723,1221.475c-6.345,1.413-11.388-2.758-16.866-4.451
		c-12.876-3.978-25.305-9.396-37.972-14.077c-2.068-0.767-3.663-1.71-4.575-3.706
		C1561.113,1206.651,1580.919,1214.064,1600.723,1221.475z"/>
	<path fill-rule="evenodd" clip-rule="evenodd" fill="#5ABCEC" d="M768.387,1225.094c-9.629,0.374-18.511-3.11-27.639-5.335
		c-2.755-0.673-5.522-1.363-8.326-1.747c-2.097-0.287-4.103-0.386-4.996-2.726c11.785,2.562,23.581,5.071,35.344,7.733
		C764.687,1223.454,766.939,1223.276,768.387,1225.094z"/>
	<path fill-rule="evenodd" clip-rule="evenodd" fill="#6EC4EF" d="M1219.69,1134.915c-0.686,0.729-1.329,2.045-2.064,2.099
		c-7.708,0.559-14.648,5.313-22.651,4.117C1202.841,1137.582,1211.323,1136.477,1219.69,1134.915z"/>
	<path fill-rule="evenodd" clip-rule="evenodd" fill="#89CFF1" d="M670.538,1205.479c-0.386,1.19-0.772,2.38-1.157,3.571
		c-1.112-0.07-2.006-0.663-1.87-1.749C667.719,1205.633,669.012,1205.238,670.538,1205.479z"/>
	<path fill-rule="evenodd" clip-rule="evenodd" fill="#F7F9FB" d="M937.434,978.93c-4.902,0-8.969,0-13.737,0
		c2.134-5.822,4.135-11.281,6.714-18.316C933.018,967.413,935.066,972.752,937.434,978.93z"/>
</g>
<g id="Tanzania_ports_authority">
	<text transform="matrix(1 0 0 1 643.7822 1001.2779)"><tspan x="0" y="0" fill="#012B99" font-family="'Orbitron-Bold'" font-size="77" letter-spacing="4">T</tspan><tspan x="63.37" y="0" fill="#012B99" font-family="'Arial-BoldMT'" font-size="77" letter-spacing="4">A</tspan><tspan x="123.905" y="0" fill="#012B99" font-family="'Orbitron-Bold'" font-size="77" letter-spacing="4">NZ</tspan><tspan x="261.041" y="0" fill="#012B99" font-family="'Arial-BoldMT'" font-size="77" letter-spacing="4">A</tspan><tspan x="321.576" y="0" fill="#012B99" font-family="'Orbitron-Bold'" font-size="77" letter-spacing="4">NI</tspan><tspan x="412.433" y="0" fill="#012B99" font-family="'Arial-BoldMT'" font-size="77" letter-spacing="4">A</tspan></text>
	
		<text transform="matrix(1 0 0 1 1153.2455 1001.2779)" fill="#012B99" font-family="'Orbitron-Bold'" font-size="77" letter-spacing="4">PORTS</text>
	<text transform="matrix(1 0 0 1 1522.0586 1002.2779)"><tspan x="0" y="0" fill="#012B99" font-family="'Arial-BoldMT'" font-size="77" letter-spacing="4">A</tspan><tspan x="60.535" y="0" fill="#012B99" font-family="'Orbitron-Bold'" font-size="77" letter-spacing="4">UTHORITY</tspan></text>
</g>
</svg>
