<svg xmlns="http://www.w3.org/2000/svg" xmlns:xlink="http://www.w3.org/1999/xlink" width="500" zoomAndPan="magnify" viewBox="0 0 375 374.999991" height="500" preserveAspectRatio="xMidYMid meet" version="1.0"><defs><clipPath id="id1"><path d="M 52 32.449219 L 172 32.449219 L 172 157 L 52 157 Z M 52 32.449219 " clip-rule="nonzero"/></clipPath><clipPath id="id2"><path d="M 37.5 258 L 106 258 L 106 328 L 37.5 328 Z M 37.5 258 " clip-rule="nonzero"/></clipPath><clipPath id="id3"><path d="M 299 260 L 338.25 260 L 338.25 342 L 299 342 Z M 299 260 " clip-rule="nonzero"/></clipPath></defs><rect x="-37.5" width="450" fill="#ffffff" y="-37.499999" height="449.999989" fill-opacity="1"/><rect x="-37.5" width="450" fill="#ffffff" y="-37.499999" height="449.999989" fill-opacity="1"/><rect x="-37.5" width="450" fill="#ffffff" y="-37.499999" height="449.999989" fill-opacity="1"/><rect x="-37.5" width="450" fill="#ffffff" y="-37.499999" height="449.999989" fill-opacity="1"/><g clip-path="url(#id1)"><path fill="#244f88" d="M 55.792969 99.753906 L 84.933594 113.898438 C 87.101562 114.949219 88.613281 117 88.972656 119.382812 L 93.828125 151.382812 C 94.164062 153.582031 95.632812 155.300781 97.753906 155.980469 C 99.878906 156.652344 102.074219 156.097656 103.617188 154.496094 L 126.085938 131.179688 C 127.761719 129.441406 130.179688 128.644531 132.558594 129.035156 L 164.519531 134.308594 C 166.714844 134.671875 168.808594 133.808594 170.109375 131.996094 C 171.40625 130.1875 171.558594 127.933594 170.507812 125.96875 L 155.253906 97.414062 C 154.121094 95.289062 154.105469 92.746094 155.214844 90.605469 L 170.113281 61.863281 C 171.136719 59.886719 170.960938 57.632812 169.636719 55.839844 C 168.316406 54.046875 166.21875 53.214844 164.019531 53.597656 L 132.125 59.265625 C 129.753906 59.6875 127.324219 58.914062 125.628906 57.203125 L 102.875 34.164062 C 101.765625 33.042969 100.339844 32.449219 98.847656 32.449219 C 98.234375 32.449219 97.613281 32.550781 96.996094 32.753906 C 94.878906 33.453125 93.433594 35.191406 93.125 37.398438 L 88.664062 69.453125 C 88.332031 71.839844 86.847656 73.910156 84.691406 74.988281 L 55.730469 89.492188 C 53.738281 90.488281 52.558594 92.414062 52.570312 94.640625 C 52.582031 96.867188 53.789062 98.78125 55.792969 99.753906 Z M 55.792969 99.753906 " fill-opacity="1" fill-rule="nonzero"/></g><path fill="#244f88" d="M 252.28125 132.660156 C 251.671875 134.132812 251.9375 135.726562 252.988281 136.925781 C 254.042969 138.121094 255.59375 138.59375 257.128906 138.179688 L 280.617188 131.886719 C 282.433594 131.40625 284.363281 131.839844 285.792969 133.054688 L 304.292969 148.816406 C 305.507812 149.851562 307.113281 150.09375 308.574219 149.460938 C 310.039062 148.832031 310.964844 147.503906 311.050781 145.914062 L 312.320312 121.652344 C 312.417969 119.78125 313.429688 118.078125 315.027344 117.101562 L 335.75 104.390625 C 337.113281 103.554688 337.835938 102.109375 337.691406 100.523438 C 337.542969 98.933594 336.566406 97.644531 335.074219 97.074219 L 312.375 88.371094 C 310.621094 87.699219 309.316406 86.210938 308.875 84.390625 L 303.179688 60.773438 C 302.804688 59.222656 301.652344 58.089844 300.097656 57.738281 C 298.542969 57.386719 297.011719 57.914062 296.007812 59.15625 L 280.707031 78.035156 C 279.527344 79.492188 277.714844 80.296875 275.835938 80.128906 L 251.59375 78.242188 C 250.007812 78.132812 248.566406 78.863281 247.75 80.234375 C 246.933594 81.605469 246.96875 83.222656 247.835938 84.558594 L 261.082031 104.929688 C 262.105469 106.5 262.289062 108.472656 261.570312 110.207031 Z M 252.28125 132.660156 " fill-opacity="1" fill-rule="nonzero"/><g clip-path="url(#id2)"><path fill="#244f88" d="M 48.191406 293.972656 C 48.996094 295.214844 49.140625 296.777344 48.570312 298.148438 L 41.511719 315.148438 C 41.078125 316.195312 41.265625 317.332031 42.011719 318.183594 C 42.757812 319.035156 43.859375 319.371094 44.953125 319.078125 L 62.753906 314.332031 C 63.140625 314.230469 63.527344 314.179688 63.917969 314.179688 C 64.976562 314.179688 66.019531 314.554688 66.847656 315.261719 L 80.851562 327.222656 C 81.714844 327.960938 82.855469 328.132812 83.894531 327.6875 C 84.9375 327.238281 85.597656 326.296875 85.65625 325.167969 L 86.640625 306.785156 C 86.71875 305.304688 87.523438 303.960938 88.789062 303.183594 L 104.503906 293.574219 C 105.472656 292.984375 105.988281 291.957031 105.882812 290.828125 C 105.78125 289.699219 105.089844 288.78125 104.03125 288.378906 L 86.835938 281.761719 C 85.453125 281.226562 84.417969 280.046875 84.070312 278.605469 L 79.78125 260.707031 C 79.515625 259.605469 78.699219 258.796875 77.59375 258.546875 C 76.488281 258.292969 75.398438 258.667969 74.683594 259.550781 L 63.074219 273.84375 C 62.136719 274.992188 60.703125 275.613281 59.214844 275.492188 L 40.847656 274.039062 C 39.710938 273.949219 38.695312 274.476562 38.117188 275.449219 C 37.535156 276.425781 37.558594 277.574219 38.171875 278.527344 Z M 48.191406 293.972656 " fill-opacity="1" fill-rule="nonzero"/></g><path fill="#244f88" d="M 70.488281 209.863281 C 70.488281 215.851562 75.367188 220.726562 81.363281 220.726562 C 87.359375 220.726562 92.234375 215.851562 92.234375 209.863281 C 92.234375 203.875 87.359375 199 81.363281 199 C 75.367188 199 70.488281 203.871094 70.488281 209.863281 Z M 70.488281 209.863281 " fill-opacity="1" fill-rule="nonzero"/><path fill="#244f88" d="M 202.949219 134.820312 C 202.949219 141.089844 208.054688 146.191406 214.332031 146.191406 C 220.609375 146.191406 225.714844 141.089844 225.714844 134.820312 C 225.714844 128.546875 220.609375 123.449219 214.332031 123.449219 C 208.054688 123.449219 202.949219 128.550781 202.949219 134.820312 Z M 202.949219 134.820312 " fill-opacity="1" fill-rule="nonzero"/><path fill="#244f88" d="M 134.703125 312.753906 C 128.40625 308.917969 123.25 308.714844 119.796875 312.167969 C 118.402344 313.558594 117.449219 315.578125 117.046875 317.996094 C 116.984375 318.351562 116.9375 318.699219 116.898438 319.035156 C 116.148438 325.703125 121.15625 331.773438 128.066406 332.570312 C 136.261719 333.515625 147.800781 337.660156 155.4375 340.394531 C 156.796875 340.882812 158.039062 341.328125 159.132812 341.710938 C 160.574219 342.210938 161.730469 341.535156 162.335938 340.730469 C 162.929688 339.9375 163.257812 338.652344 162.378906 337.425781 C 156.839844 329.671875 144.683594 318.835938 134.703125 312.753906 Z M 134.703125 312.753906 " fill-opacity="1" fill-rule="nonzero"/><path fill="#244f88" d="M 195.878906 341.8125 C 197.351562 341.496094 198.328125 339.9375 198.054688 338.339844 C 190.046875 291.195312 164.421875 260.945312 149.859375 247.109375 C 146.875 244.273438 144.1875 241.125 141.472656 237.878906 C 138.386719 234.195312 133.96875 232.167969 129.261719 232.167969 C 128.265625 232.167969 127.261719 232.257812 126.25 232.445312 C 117.8125 233.980469 112.355469 241.5625 113.558594 250.074219 C 114.648438 257.800781 120.550781 261.355469 125.308594 262.976562 C 130.453125 264.730469 134.71875 266.722656 138.355469 269.070312 C 174.171875 292.203125 188.871094 329.167969 192.523438 339.949219 C 192.992188 341.324219 194.441406 342.125 195.878906 341.8125 Z M 195.878906 341.8125 " fill-opacity="1" fill-rule="nonzero"/><path fill="#244f88" d="M 232.394531 341.882812 C 233.238281 341.882812 234.039062 341.519531 234.59375 340.882812 C 235.140625 340.253906 235.390625 339.421875 235.277344 338.605469 C 224.777344 262.148438 188.164062 199.726562 177.191406 182.417969 C 176.335938 181.066406 175.566406 179.65625 174.820312 178.292969 L 174.0625 176.921875 C 171.328125 172.007812 166.195312 169.042969 160.652344 169.042969 C 160.042969 169.042969 159.429688 169.078125 158.808594 169.152344 C 151.988281 169.960938 146.390625 175.476562 145.492188 182.273438 C 144.800781 187.53125 146.796875 192.691406 150.835938 196.078125 C 204.546875 251.273438 225.863281 325.417969 229.589844 339.722656 C 229.921875 340.996094 231.074219 341.882812 232.394531 341.882812 Z M 232.394531 341.882812 " fill-opacity="1" fill-rule="nonzero"/><path fill="#244f88" d="M 238.917969 263.09375 C 240.558594 262.492188 241.472656 260.757812 241.042969 259.058594 C 238.234375 248.019531 229.316406 209.992188 232.429688 184.097656 C 232.867188 182.5 232.964844 181.011719 232.730469 179.554688 C 231.921875 174.484375 227.390625 170.636719 222.324219 170.636719 C 222.199219 170.636719 222.074219 170.640625 221.945312 170.644531 C 216.28125 170.855469 211.84375 175.464844 211.84375 181.132812 C 211.84375 181.90625 211.9375 182.710938 212.128906 183.523438 C 213.710938 196.0625 219.980469 238.507812 234.867188 261.738281 C 235.734375 263.089844 237.398438 263.652344 238.917969 263.09375 Z M 238.917969 263.09375 " fill-opacity="1" fill-rule="nonzero"/><path fill="#244f88" d="M 294.285156 182.351562 C 295.292969 180.308594 295.769531 178.136719 295.695312 175.894531 C 295.464844 168.765625 289.46875 162.867188 282.332031 162.746094 C 282.253906 162.746094 282.175781 162.746094 282.097656 162.746094 C 278.503906 162.746094 275.128906 164.125 272.5625 166.644531 C 269.941406 169.222656 268.496094 172.664062 268.496094 176.335938 C 268.371094 177.40625 256.644531 274.488281 270.03125 340.003906 C 270.253906 341.09375 271.230469 341.882812 272.359375 341.882812 C 273.035156 341.882812 273.65625 341.609375 274.109375 341.113281 C 274.5625 340.621094 274.777344 339.984375 274.722656 339.316406 C 273.140625 321.289062 269.878906 256.6875 294.242188 182.453125 Z M 294.285156 182.351562 " fill-opacity="1" fill-rule="nonzero"/><g clip-path="url(#id3)"><path fill="#244f88" d="M 333.566406 283.367188 C 336.554688 280.910156 338.242188 277.332031 338.242188 273.523438 C 338.242188 266.519531 332.539062 260.820312 325.527344 260.820312 C 320.699219 260.820312 316.347656 263.507812 314.171875 267.839844 C 314.019531 268.140625 299.101562 298.019531 299.726562 338.800781 C 299.75 340.5 301.140625 341.882812 302.820312 341.882812 C 304.335938 341.882812 305.617188 340.804688 305.867188 339.324219 C 307.664062 328.683594 313.957031 301.925781 333.566406 283.367188 Z M 333.566406 283.367188 " fill-opacity="1" fill-rule="nonzero"/></g></svg>